<svg width="55" height="56" viewBox="0 0 55 56" fill="none" xmlns="http://www.w3.org/2000/svg">
<g clip-path="url(#clip0)">
<path d="M47.8175 14.7966H14.3191C11.215 14.7966 8.67745 12.2703 8.67745 9.15499C8.67745 6.05098 11.2037 3.51339 14.3191 3.51339H47.8288C48.6672 3.51339 49.3355 2.83368 49.3355 2.00669C49.3355 1.16838 48.6558 0.5 47.8288 0.5H14.3191C9.54975 0.5 5.66406 4.38569 5.66406 9.15499V46.845C5.66406 51.6143 9.54975 55.5 14.3191 55.5H47.8288C48.6672 55.5 49.3355 54.8203 49.3355 53.9933V16.3033C49.3242 15.4763 48.6558 14.7966 47.8175 14.7966ZM46.3108 52.4866H14.3191C11.215 52.4866 8.67745 49.9604 8.67745 46.845V15.7255C10.1955 17.0283 12.1666 17.8213 14.3191 17.8213H46.3108V52.4866Z" fill="black"/>
<path d="M14.7953 7.7843C13.957 7.7843 13.2886 8.46401 13.2886 9.291C13.2886 10.118 13.9683 10.7977 14.7953 10.7977H43.0939C43.9322 10.7977 44.6006 10.118 44.6006 9.291C44.6006 8.46401 43.9209 7.7843 43.0939 7.7843H14.7953Z" fill="black"/>
<path d="M20.0967 45.8934C20.2667 45.95 20.4366 45.984 20.6065 45.984C21.2296 45.984 21.8073 45.5989 22.0226 44.9871L23.8578 39.8553H30.9268C30.9834 39.8553 31.0514 39.8553 31.1081 39.844L32.9433 44.9871C33.1585 45.5989 33.7476 45.984 34.3593 45.984C34.5293 45.984 34.6992 45.95 34.8691 45.8934C35.6508 45.6102 36.0586 44.7492 35.7754 43.9675L28.9103 24.7204C28.899 24.6751 28.8763 24.6297 28.8537 24.5844C28.8423 24.5618 28.831 24.5391 28.8197 24.5165C28.8084 24.4938 28.797 24.4711 28.7857 24.4485C28.7744 24.4258 28.7517 24.4032 28.7404 24.3692C28.7291 24.3579 28.7177 24.3352 28.7064 24.3239C28.6951 24.3012 28.6724 24.2786 28.6498 24.2559C28.6384 24.2446 28.6271 24.2219 28.6044 24.2106C28.5931 24.1879 28.5705 24.1766 28.5478 24.1539C28.5251 24.1313 28.5138 24.12 28.4912 24.0973C28.4798 24.086 28.4572 24.0746 28.4458 24.052C28.4232 24.0293 28.4005 24.018 28.3779 23.9953C28.3665 23.984 28.3439 23.9727 28.3326 23.9614C28.3099 23.95 28.2872 23.9274 28.2646 23.916C28.2419 23.9047 28.2193 23.8934 28.1966 23.8821C28.174 23.8707 28.1513 23.8594 28.1286 23.8481C28.0833 23.8254 28.038 23.8028 27.9927 23.7914H27.9814C27.9361 23.7801 27.8908 23.7688 27.8454 23.7574C27.8228 23.7574 27.8115 23.7461 27.7888 23.7461C27.7548 23.7348 27.7322 23.7348 27.6982 23.7235C27.6755 23.7235 27.6529 23.7235 27.6302 23.7121C27.6075 23.7121 27.5736 23.7008 27.5509 23.7008C27.5282 23.7008 27.5056 23.7008 27.4829 23.7008C27.4603 23.7008 27.4376 23.7008 27.4036 23.7008C27.381 23.7008 27.347 23.7008 27.3243 23.7121C27.3017 23.7121 27.279 23.7121 27.2564 23.7235C27.2224 23.7235 27.1997 23.7348 27.1657 23.7461C27.1431 23.7461 27.1317 23.7574 27.1091 23.7574C27.0638 23.7688 27.0185 23.7801 26.9845 23.7914H26.9731C26.9278 23.8028 26.8825 23.8254 26.8372 23.8481C26.8145 23.8594 26.7919 23.8707 26.7692 23.8821C26.7466 23.8934 26.7239 23.9047 26.7013 23.916C26.6786 23.9274 26.6559 23.95 26.622 23.9614C26.6106 23.9727 26.588 23.984 26.5766 23.9953C26.554 24.018 26.5313 24.0293 26.5087 24.052C26.4973 24.0633 26.4747 24.0746 26.4634 24.0973C26.4407 24.12 26.4294 24.1313 26.4067 24.1539C26.3841 24.1766 26.3727 24.1879 26.3501 24.2106C26.3387 24.2219 26.3274 24.2446 26.3048 24.2559C26.2821 24.2786 26.2708 24.3012 26.2481 24.3239C26.2368 24.3352 26.2255 24.3579 26.2141 24.3692C26.2028 24.3918 26.1801 24.4145 26.1688 24.4372C26.1575 24.4598 26.1462 24.4825 26.1348 24.5051C26.1235 24.5278 26.1122 24.5504 26.1008 24.5731C26.0782 24.6184 26.0555 24.6637 26.0442 24.709L19.1565 43.9562C18.9072 44.7492 19.3151 45.6102 20.0967 45.8934ZM27.4943 29.7049L30.0432 36.8419H24.934L27.4943 29.7049Z" fill="black"/>
</g>
<defs>
<clipPath id="clip0">
<rect width="55" height="55" fill="white" transform="translate(0 0.5)"/>
</clipPath>
</defs>
</svg>
