<svg width="55" height="56" viewBox="0 0 55 56" fill="none" xmlns="http://www.w3.org/2000/svg">
<g clip-path="url(#clip0)">
<path d="M16.5112 36.716H46.8162C50.2526 36.716 53.0559 33.9127 53.0559 30.4764V17.7259C53.0559 17.7146 53.0559 17.692 53.0559 17.6807C53.0559 17.6468 53.0559 17.6242 53.0559 17.5903C53.0559 17.5676 53.0559 17.545 53.0446 17.5224C53.0446 17.4998 53.0332 17.4659 53.0332 17.4433C53.0332 17.4207 53.0219 17.3981 53.0219 17.3755C53.0106 17.3529 53.0106 17.3303 52.9993 17.2964C52.988 17.2738 52.988 17.2511 52.9767 17.2285C52.9654 17.2059 52.9654 17.1833 52.9541 17.1607C52.9428 17.1381 52.9315 17.1155 52.9202 17.0816C52.9089 17.059 52.8976 17.0364 52.8863 17.0251C52.875 17.0025 52.8637 16.9799 52.8524 16.9573C52.8411 16.9346 52.8298 16.9233 52.8185 16.9007C52.8072 16.8781 52.7846 16.8555 52.7733 16.8329C52.762 16.8103 52.7507 16.799 52.728 16.7764C52.7167 16.7538 52.6941 16.7425 52.6828 16.7199C52.6715 16.6973 52.6489 16.686 52.6376 16.6634C52.6263 16.6407 52.6037 16.6294 52.5924 16.6181C52.5698 16.5955 52.5585 16.5842 52.5359 16.5616C52.5133 16.5503 52.502 16.5277 52.4794 16.5164C52.4568 16.5051 52.4342 16.4825 52.4115 16.4712C52.3889 16.4599 52.3776 16.4486 52.355 16.4373C52.3324 16.426 52.3098 16.4147 52.2872 16.3921C52.2646 16.3808 52.242 16.3695 52.2194 16.3582C52.1968 16.3469 52.1742 16.3356 52.1516 16.3242C52.129 16.3129 52.1063 16.3016 52.0837 16.2903C52.0611 16.279 52.0385 16.279 52.0159 16.2677C51.9933 16.2564 51.9594 16.2451 51.9368 16.2451C51.9142 16.2451 51.8916 16.2338 51.8803 16.2338C51.8464 16.2225 51.8238 16.2225 51.7898 16.2225C51.7785 16.2225 51.7672 16.2112 51.7446 16.2112L13.3349 10.9098V5.55188C13.3349 5.49536 13.3349 5.43884 13.3236 5.39363C13.3236 5.38233 13.3236 5.37102 13.3123 5.34841C13.3123 5.3145 13.301 5.28059 13.301 5.24668C13.2897 5.21277 13.2897 5.19016 13.2784 5.15625C13.2784 5.13364 13.267 5.12234 13.267 5.09973C13.2557 5.06582 13.2444 5.03191 13.2331 4.998C13.2331 4.9867 13.2218 4.96409 13.2218 4.95279C13.2105 4.91888 13.1992 4.89627 13.1766 4.86236C13.1653 4.85105 13.1653 4.82845 13.154 4.81714C13.1427 4.79454 13.1314 4.77193 13.1088 4.74932C13.0975 4.72671 13.0862 4.71541 13.0749 4.6928C13.0636 4.6702 13.0523 4.65889 13.041 4.63628C13.0297 4.61368 13.0071 4.59107 12.9958 4.56846C12.9845 4.55716 12.9732 4.54586 12.9619 4.53455C12.9392 4.51194 12.9166 4.48934 12.894 4.46673C12.8827 4.45543 12.8714 4.44412 12.8601 4.43282C12.8375 4.41021 12.8149 4.3876 12.781 4.365C12.7697 4.35369 12.7471 4.34239 12.7358 4.33109C12.7132 4.30848 12.6906 4.29718 12.668 4.27457C12.634 4.25196 12.6001 4.22935 12.5775 4.21805C12.5662 4.20675 12.5549 4.20675 12.5436 4.19544C12.4984 4.17284 12.4419 4.15023 12.3967 4.12762L4.06589 0.623493C3.28594 0.295688 2.39295 0.657404 2.06514 1.43736C1.73734 2.21731 2.09905 3.11029 2.87901 3.4381L10.2716 6.5579V13.4757V14.5722V22.9821V30.499V39.9941C10.2716 43.1591 12.6453 45.7815 15.7086 46.1772C15.1548 47.1041 14.827 48.1892 14.827 49.3422C14.827 52.7446 17.5963 55.5027 20.9874 55.5027C24.3785 55.5027 27.1479 52.7333 27.1479 49.3422C27.1479 48.2118 26.8427 47.138 26.3001 46.2337H40.0228C39.4802 47.1493 39.175 48.2118 39.175 49.3422C39.175 52.7446 41.9444 55.5027 45.3355 55.5027C48.7266 55.5027 51.496 52.7333 51.496 49.3422C51.496 45.9511 48.7266 43.1817 45.3355 43.1817H16.5112C14.7478 43.1817 13.3236 41.7461 13.3236 39.9941V35.8569C14.2505 36.3995 15.3469 36.716 16.5112 36.716ZM24.1072 49.3309C24.1072 51.049 22.7056 52.4394 20.9987 52.4394C19.2919 52.4394 17.8902 51.0377 17.8902 49.3309C17.8902 47.624 19.2919 46.2224 20.9987 46.2224C22.7056 46.2224 24.1072 47.6127 24.1072 49.3309ZM48.4553 49.3309C48.4553 51.049 47.0536 52.4394 45.3468 52.4394C43.6399 52.4394 42.2383 51.0377 42.2383 49.3309C42.2383 47.624 43.6399 46.2224 45.3468 46.2224C47.0536 46.2224 48.4553 47.6127 48.4553 49.3309ZM46.8162 33.664H16.5112C14.7478 33.664 13.3236 32.2285 13.3236 30.4764V22.9595V14.5496V13.9844L50.0039 19.0371V30.4651C50.0039 32.2398 48.5683 33.664 46.8162 33.664Z" fill="black"/>
</g>
<defs>
<clipPath id="clip0">
<rect width="55" height="55" fill="white" transform="translate(0 0.5)"/>
</clipPath>
</defs>
</svg>
