<svg width="52" height="52" viewBox="0 0 52 52" fill="none" xmlns="http://www.w3.org/2000/svg">
<path d="M44.3692 7.6186C39.455 2.70444 32.9358 0 25.9878 0C19.0398 0 12.5206 2.70444 7.60639 7.6186C-1.89213 17.1171 -2.55175 32.3214 5.96834 42.5784C5.13282 44.2605 3.79159 46.2173 1.80174 47.1958C0.845292 47.6685 0.306602 48.6909 0.471507 49.7463C0.636412 50.8017 1.44994 51.6262 2.50533 51.7911C3.00005 51.8681 3.70364 51.945 4.56115 51.945C6.85882 51.945 10.2449 51.4063 13.7079 48.9108C17.5666 50.9886 21.7882 52 25.9768 52C32.7049 52 39.3671 49.3945 44.3802 44.3814C49.2943 39.4672 51.9988 32.948 51.9988 26C51.9988 19.052 49.2833 12.5328 44.3692 7.6186ZM42.2694 42.2816C34.8487 49.7023 23.3603 51.1755 14.3235 45.8655C13.7299 45.5137 12.9933 45.6237 12.5206 46.0964C12.4766 46.1184 12.4326 46.1514 12.3996 46.1844C9.42034 48.493 6.49603 48.9767 4.56115 48.9767H4.55015C6.78187 47.3497 8.18905 44.9311 9.01358 43.0512C9.1455 42.7323 9.16749 42.4025 9.09053 42.0947C9.05755 41.7979 8.93662 41.5011 8.72774 41.2592C0.680387 32.1674 1.09815 18.3154 9.69518 9.71839C18.677 0.736576 33.2876 0.736576 42.2584 9.71839C51.2512 18.7002 51.2512 33.2998 42.2694 42.2816Z" fill="#6E6E73"/>
<path d="M25.9871 27.8252C26.9949 27.8252 27.812 27.0081 27.812 26.0002C27.812 24.9923 26.9949 24.1753 25.9871 24.1753C24.9792 24.1753 24.1621 24.9923 24.1621 26.0002C24.1621 27.0081 24.9792 27.8252 25.9871 27.8252Z" fill="#6E6E73"/>
<path d="M35.3972 27.8252C36.4051 27.8252 37.2222 27.0081 37.2222 26.0002C37.2222 24.9923 36.4051 24.1753 35.3972 24.1753C34.3893 24.1753 33.5723 24.9923 33.5723 26.0002C33.5723 27.0081 34.3893 27.8252 35.3972 27.8252Z" fill="#6E6E73"/>
<path d="M16.5764 27.8252C17.5843 27.8252 18.4014 27.0081 18.4014 26.0002C18.4014 24.9923 17.5843 24.1753 16.5764 24.1753C15.5685 24.1753 14.7515 24.9923 14.7515 26.0002C14.7515 27.0081 15.5685 27.8252 16.5764 27.8252Z" fill="#6E6E73"/>
</svg>
