<svg width="55" height="56" viewBox="0 0 55 56" fill="none" xmlns="http://www.w3.org/2000/svg">
<g clip-path="url(#clip0)">
<path d="M35.396 10.1191H9.82772C7.42858 10.1191 5.47998 12.0677 5.47998 14.4669V51.1523C5.47998 53.5515 7.42858 55.5001 9.82772 55.5001H35.396C37.7952 55.5001 39.7438 53.5515 39.7438 51.1523V14.4669C39.7325 12.0677 37.7839 10.1191 35.396 10.1191ZM36.6913 51.1411C36.6913 51.8619 36.1056 52.4476 35.3848 52.4476H9.81645C9.09559 52.4476 8.50988 51.8619 8.50988 51.1411V14.4669C8.50988 13.746 9.09559 13.1603 9.81645 13.1603H35.3848C36.1056 13.1603 36.6913 13.746 36.6913 14.4669V51.1411Z" fill="black"/>
<path d="M45.1729 0.5H19.6046C17.2054 0.5 15.2568 2.4486 15.2568 4.84774C15.2568 5.6925 15.9327 6.36832 16.7774 6.36832C17.6222 6.36832 18.298 5.6925 18.298 4.84774C18.298 4.12687 18.8837 3.54116 19.6046 3.54116H45.1729C45.8937 3.54116 46.4794 4.12687 46.4794 4.84774V41.5332C46.4794 42.254 45.8937 42.8397 45.1729 42.8397C44.3281 42.8397 43.6523 43.5156 43.6523 44.3603C43.6523 45.2051 44.3281 45.8809 45.1729 45.8809C47.572 45.8809 49.5206 43.9323 49.5206 41.5332V4.84774C49.5206 2.4486 47.572 0.5 45.1729 0.5Z" fill="black"/>
</g>
<defs>
<clipPath id="clip0">
<rect width="55" height="55" fill="white" transform="translate(0 0.5)"/>
</clipPath>
</defs>
</svg>
