<svg width="55" height="56" viewBox="0 0 55 56" fill="none" xmlns="http://www.w3.org/2000/svg">
<g clip-path="url(#clip0)">
<path d="M55 28.2473C55 20.9014 52.1393 13.9911 46.9478 8.79954C41.7562 3.60797 34.8459 0.747314 27.5 0.747314C20.1541 0.747314 13.2438 3.60797 8.05223 8.79954C2.86066 13.9911 0 20.9014 0 28.2473V41.2674C0 48.6251 5.99208 54.6172 13.3497 54.6172C14.2327 54.6172 14.939 53.9108 14.939 53.0279V29.5187C14.939 28.6358 14.2327 27.9295 13.3497 27.9295C9.27654 27.9295 5.62714 29.7542 3.17851 32.6384V28.2473C3.17851 14.8387 14.0914 3.92582 27.5 3.92582C40.9086 3.92582 51.8215 14.8387 51.8215 28.2473C51.8215 28.3533 51.8333 28.4592 51.8568 28.5652C51.8333 28.6711 51.8215 28.7771 51.8215 28.883V33.2741C49.3729 30.3899 45.7235 28.5652 41.6503 28.5652C40.7673 28.5652 40.061 29.2715 40.061 30.1544V53.6636C40.061 54.5465 40.7673 55.2529 41.6503 55.2529C49.0079 55.2529 55 49.2608 55 41.9031V28.883C55 28.7771 54.9882 28.6711 54.9647 28.5652C54.9882 28.4592 55 28.3533 55 28.2473ZM11.7487 31.2257V51.3092C6.89854 50.544 3.16674 46.3295 3.16674 41.2674C3.17851 36.2054 6.89854 31.9909 11.7487 31.2257ZM43.2513 51.9449V31.8614C48.1015 32.6266 51.8333 36.8411 51.8333 41.9031C51.8215 46.977 48.1015 51.1797 43.2513 51.9449Z" fill="black"/>
</g>
<defs>
<clipPath id="clip0">
<rect width="55" height="55" fill="white" transform="translate(0 0.5)"/>
</clipPath>
</defs>
</svg>
