<svg width="40" height="58" viewBox="0 0 40 58" fill="none" xmlns="http://www.w3.org/2000/svg">
<g clip-path="url(#clip0)">
<path d="M20 33.1079C29.1065 33.1079 36.4888 25.6965 36.4888 16.554C36.4888 7.41147 29.1065 0 20 0C10.8935 0 3.51123 7.41147 3.51123 16.554C3.51123 25.6965 10.8935 33.1079 20 33.1079Z" fill="url(#paint0_radial)"/>
<path fill-rule="evenodd" clip-rule="evenodd" d="M20 8.8927C28.7079 8.8927 35.8333 12.5588 36.4419 17.212C36.47 16.9958 36.4888 16.7796 36.4888 16.5634C36.4888 11.6188 29.1011 7.59546 20 7.59546C10.8989 7.59546 3.51123 11.6 3.51123 16.5634C3.51123 16.7796 3.52996 17.0052 3.55805 17.212C4.17602 12.5494 11.3015 8.8927 20 8.8927Z" fill="url(#paint1_linear)"/>
<path fill-rule="evenodd" clip-rule="evenodd" d="M28.249 2.22769C28.0618 2.11489 27.8651 2.02088 27.6685 1.93628C31.367 4.79398 30.9738 12.8219 26.6198 20.3891C22.2659 27.9564 15.543 32.3181 11.2266 30.5227C11.3951 30.6543 11.573 30.7765 11.7696 30.8893C16.0393 33.371 23.1929 28.9528 27.7434 21.0377C32.294 13.1227 32.5187 4.69997 28.249 2.22769Z" fill="url(#paint2_linear)"/>
<path fill-rule="evenodd" clip-rule="evenodd" d="M13.3896 20.3891C9.03566 12.8219 8.63304 4.79398 12.3409 1.93628C12.1443 2.02088 11.9476 2.11489 11.7604 2.22769C7.48136 4.69997 7.71544 13.1227 12.266 21.0377C16.8166 28.9528 23.9701 33.3616 28.2398 30.8893C28.4271 30.7765 28.605 30.6637 28.7829 30.5227C24.4757 32.3181 17.7435 27.9564 13.3896 20.3891Z" fill="url(#paint3_linear)"/>
<path fill-rule="evenodd" clip-rule="evenodd" d="M9.88775 9.47552C12.678 8.29108 16.1892 7.58606 20.0095 7.58606C23.8297 7.58606 27.3409 8.29108 30.1312 9.48492C30.3278 6.14781 29.5132 3.39351 27.6499 1.95526C27.6874 1.97406 27.7342 1.99286 27.7716 2.01166C25.4495 0.761421 22.8091 0.0563965 20.0001 0.0563965C17.2098 0.0563965 14.5694 0.761421 12.266 2.00226C12.2941 1.98346 12.3316 1.97406 12.3597 1.95526C10.4964 3.38411 9.68176 6.13841 9.88775 9.47552ZM10.0001 10.7258C10.384 13.7151 11.5263 17.071 13.4083 20.3423C15.2904 23.6136 17.6218 26.2833 20.0001 28.107C22.3784 26.2739 24.7098 23.6136 26.5919 20.3423C28.4739 17.071 29.6162 13.7057 30.0001 10.7258C27.2286 9.56952 23.7642 8.8739 20.0001 8.8739C16.2454 8.8739 12.7716 9.56012 10.0001 10.7258ZM31.2454 10.0019C34.2136 11.5154 36.1424 13.6117 36.3952 15.9617C36.208 10.2839 33.1555 5.33938 28.6612 2.51928C30.5619 3.91993 31.4233 6.65542 31.2454 10.0019ZM18.9889 28.8308C16.5731 26.9977 14.2042 24.2998 12.2941 20.9815C10.384 17.6632 9.24168 14.2603 8.87652 11.2428C5.88962 12.7374 3.9327 14.8243 3.62371 17.165C3.62371 17.1462 3.62371 17.1368 3.61434 17.118C3.81097 22.7676 6.84468 27.6839 11.3203 30.4946C11.3016 30.4758 11.2735 30.457 11.2548 30.4382C13.4271 31.3407 16.208 30.6827 18.9889 28.8308ZM31.1331 11.2428C30.7679 14.2603 29.6162 17.6726 27.7155 20.9815C25.8147 24.2904 23.4458 26.9977 21.0207 28.8308C23.8016 30.6827 26.5825 31.3407 28.7548 30.4288C28.7267 30.4476 28.6986 30.4758 28.6705 30.4946C33.1743 27.6839 36.2173 22.73 36.4046 17.0616C36.4046 17.0898 36.3952 17.118 36.3952 17.1462C36.0769 14.8243 34.12 12.7374 31.1331 11.2428ZM8.76416 10.0019C8.58625 6.67422 9.43831 3.93873 11.3297 2.53808C6.84468 5.33938 3.80161 10.2651 3.60498 15.9147C3.89524 13.5835 5.82408 11.4966 8.76416 10.0019ZM20.0001 29.5452C17.2098 31.3595 14.4383 31.9893 12.2754 31.0399C14.5694 32.2713 17.2005 32.9763 20.0001 32.9763C22.7997 32.9763 25.4308 32.2713 27.7342 31.0305C25.5806 31.9893 22.7997 31.3689 20.0001 29.5452Z" fill="#0A0A0A"/>
<path d="M39.8971 46.8795C39.8315 45.9395 39.7005 44.9148 39.5132 43.8338C39.3166 42.7434 39.0638 41.7187 38.7641 40.7787C38.4551 39.8105 38.0338 38.8422 37.5094 37.9304C36.9664 36.9716 36.3297 36.1443 35.6181 35.4581C34.869 34.7437 33.9608 34.1703 32.9027 33.7473C31.854 33.3336 30.6836 33.1174 29.4383 33.1174C28.9514 33.1174 28.4739 33.3148 27.5656 33.9165C27.0038 34.2831 26.3484 34.7061 25.6087 35.1855C24.9814 35.5897 24.1293 35.9657 23.0806 36.3041C22.06 36.6332 21.0113 36.8024 19.9907 36.8024C18.9701 36.8024 17.9214 36.6332 16.9008 36.3041C15.8521 35.9657 15.0001 35.5897 14.3727 35.1855C13.6424 34.7155 12.987 34.2925 12.4158 33.9165C11.4982 33.3148 11.03 33.1174 10.5432 33.1174C9.29784 33.1174 8.12743 33.3336 7.07874 33.7473C6.02068 34.1703 5.11244 34.7437 4.36338 35.4581C3.65177 36.1443 3.01507 36.9716 2.472 37.9304C1.94765 38.8516 1.5263 39.8105 1.21731 40.7787C0.917689 41.7187 0.66488 42.7434 0.468251 43.8338C0.271622 44.9148 0.140535 45.9395 0.0843556 46.8795C0.0188125 47.8007 -0.00927734 48.7596 -0.00927734 49.7184C-0.00927734 52.2283 0.786603 54.2682 2.35027 55.7628C3.91394 57.2481 5.96451 58.0001 8.45514 58.0001H31.5357C34.0263 58.0001 36.0769 57.2481 37.6312 55.7722C39.2042 54.2776 40.0001 52.2377 40.0001 49.7278C40.0001 48.7502 39.9626 47.7913 39.8971 46.8795Z" fill="black"/>
</g>
<defs>
<radialGradient id="paint0_radial" cx="0" cy="0" r="1" gradientUnits="userSpaceOnUse" gradientTransform="translate(20.0029 16.5532) scale(16.488 16.5532)">
<stop offset="0.8848" stop-color="white" stop-opacity="0"/>
<stop offset="1" stop-color="white" stop-opacity="0.31"/>
</radialGradient>
<linearGradient id="paint1_linear" x1="3.51493" y1="12.3982" x2="36.4909" y2="12.3982" gradientUnits="userSpaceOnUse">
<stop stop-color="#D98E25"/>
<stop offset="0.2061" stop-color="#B57627"/>
<stop offset="0.4" stop-color="#D38927"/>
<stop offset="0.6909" stop-color="#F3AE48"/>
<stop offset="0.897" stop-color="#D78D27"/>
<stop offset="1" stop-color="#C48029"/>
</linearGradient>
<linearGradient id="paint2_linear" x1="15.2657" y1="32.7048" x2="31.9125" y2="4.52981" gradientUnits="userSpaceOnUse">
<stop stop-color="#4FB45D"/>
<stop offset="0.2061" stop-color="#0D9946"/>
<stop offset="0.5212" stop-color="#0E9E49"/>
<stop offset="0.7576" stop-color="#5FB867"/>
<stop offset="0.897" stop-color="#4CB45B"/>
<stop offset="1" stop-color="#43AF52"/>
</linearGradient>
<linearGradient id="paint3_linear" x1="24.1781" y1="32.9418" x2="9.02132" y2="3.65468" gradientUnits="userSpaceOnUse">
<stop stop-color="#B92C29"/>
<stop offset="0.2061" stop-color="#94181B"/>
<stop offset="0.5212" stop-color="#9E2021"/>
<stop offset="0.7576" stop-color="#B92A28"/>
<stop offset="0.897" stop-color="#B92A28"/>
<stop offset="1" stop-color="#B72728"/>
</linearGradient>
<clipPath id="clip0">
<rect width="40" height="58" fill="white"/>
</clipPath>
</defs>
</svg>
