<svg width="55" height="56" viewBox="0 0 55 56" fill="none" xmlns="http://www.w3.org/2000/svg">
<g clip-path="url(#clip0)">
<path d="M12.5962 11.4067C20.7163 4.06151 32.8684 3.9492 41.1008 10.6542L34.5755 10.9013C33.7332 10.935 33.0818 11.6313 33.1155 12.4736C33.1492 13.2935 33.8231 13.9337 34.6317 13.9337C34.6542 13.9337 34.6654 13.9337 34.6879 13.9337L44.706 13.563C45.5259 13.5293 46.166 12.8667 46.166 12.0468V11.9345C46.166 11.9121 46.166 11.9008 46.166 11.8784V11.8671L45.7954 1.9613C45.7617 1.11896 45.0542 0.467557 44.2231 0.50125C43.3807 0.534944 42.7293 1.23127 42.763 2.07361L42.9989 8.28441C38.922 4.94877 33.9017 3.01702 28.5332 2.74747C21.8844 2.41054 15.4939 4.69046 10.5634 9.16044C3.77982 15.3039 0.904659 24.6482 3.06103 33.5432C3.2295 34.2395 3.84721 34.7 4.53231 34.7C4.65585 34.7 4.76816 34.6888 4.8917 34.6551C5.70034 34.4529 6.20574 33.633 6.00358 32.8244C4.11676 25.0075 6.63253 16.7976 12.5962 11.4067Z" fill="black"/>
<path d="M51.9389 22.4581C51.7368 21.6495 50.9169 21.1441 50.1082 21.3462C49.2996 21.5484 48.7942 22.3682 48.9964 23.1769C50.8944 30.9937 48.3674 39.2037 42.4037 44.5946C38.2145 48.3795 32.9583 50.2439 27.7246 50.2439C22.7268 50.2439 17.7402 48.548 13.7194 45.2011L20.3233 44.6059C21.1544 44.5272 21.7721 43.7972 21.6935 42.9549C21.6149 42.1125 20.8849 41.5061 20.0426 41.5847L10.0581 42.4832C9.22699 42.5618 8.60928 43.2918 8.6879 44.1341L9.58639 54.1186C9.65377 54.9048 10.3164 55.5 11.0914 55.5C11.1363 55.5 11.1812 55.5 11.2261 55.4888C12.0572 55.4102 12.6749 54.6802 12.5963 53.8378L12.0572 47.7618C16.1341 51.0637 21.132 52.9843 26.4668 53.2538C26.8935 53.2763 27.3203 53.2875 27.7359 53.2875C33.9242 53.2875 39.8093 51.0188 44.4365 46.8408C51.2201 40.6974 54.0953 31.3644 51.9389 22.4581Z" fill="black"/>
</g>
<defs>
<clipPath id="clip0">
<rect width="55" height="55" fill="white" transform="translate(0 0.5)"/>
</clipPath>
</defs>
</svg>
