<svg width="46" height="46" viewBox="0 0 46 46" fill="none" xmlns="http://www.w3.org/2000/svg">
<path d="M24.3412 22.4206V1.29294C24.3412 0.574641 23.7666 0 23.0483 0C22.33 0 21.7553 0.574641 21.7553 1.29294V22.4206C18.7576 23.0239 16.4878 25.6769 16.4878 28.8566C16.4878 32.0362 18.7576 34.6892 21.7553 35.2925V44.6975C21.7553 45.4158 22.33 45.9904 23.0483 45.9904C23.7666 45.9904 24.3412 45.4158 24.3412 44.6975V35.2925C27.3389 34.6892 29.6088 32.0362 29.6088 28.8566C29.6088 25.6864 27.3485 23.0239 24.3412 22.4206ZM23.0483 32.8312C20.8551 32.8312 19.0737 31.0498 19.0737 28.8566C19.0737 26.6633 20.8551 24.882 23.0483 24.882C25.2415 24.882 27.0229 26.6633 27.0229 28.8566C27.0229 31.0498 25.2415 32.8312 23.0483 32.8312Z" fill="#6E6E73"/>
<path d="M8.50968 11.579V1.29294C8.50968 0.574641 7.93503 0 7.21673 0C6.49843 0 5.92379 0.574641 5.92379 1.29294V11.579C2.92608 12.1824 0.65625 14.8353 0.65625 18.015C0.65625 21.1947 2.92608 23.8476 5.92379 24.451V44.6975C5.92379 45.4158 6.49843 45.9904 7.21673 45.9904C7.93503 45.9904 8.50968 45.4158 8.50968 44.6975V24.4414C11.5074 23.838 13.7772 21.1851 13.7772 18.0054C13.7772 14.8257 11.5074 12.1824 8.50968 11.579ZM7.21673 21.9896C5.02352 21.9896 3.24213 20.2082 3.24213 18.015C3.24213 15.8218 5.02352 14.0404 7.21673 14.0404C9.40995 14.0404 11.1913 15.8218 11.1913 18.015C11.1913 20.2082 9.40037 21.9896 7.21673 21.9896Z" fill="#6E6E73"/>
<path d="M40.0766 11.579V1.29294C40.0766 0.574641 39.5019 0 38.7836 0C38.0653 0 37.4907 0.574641 37.4907 1.29294V11.579C34.493 12.1824 32.2231 14.8353 32.2231 18.015C32.2231 21.1947 34.493 23.8476 37.4907 24.451V44.7071C37.4907 45.4254 38.0653 46 38.7836 46C39.5019 46 40.0766 45.4254 40.0766 44.7071V24.4414C43.0743 23.838 45.3441 21.1851 45.3441 18.0054C45.3441 14.8257 43.0839 12.1824 40.0766 11.579ZM38.7836 21.9896C36.5904 21.9896 34.809 20.2082 34.809 18.015C34.809 15.8218 36.5904 14.0404 38.7836 14.0404C40.9768 14.0404 42.7582 15.8218 42.7582 18.015C42.7582 20.2082 40.9768 21.9896 38.7836 21.9896Z" fill="#6E6E73"/>
</svg>
