<svg width="55" height="56" viewBox="0 0 55 56" fill="none" xmlns="http://www.w3.org/2000/svg">
<g clip-path="url(#clip0)">
<path d="M43.5799 35.8343C40.4165 35.8343 37.5957 37.3418 35.7913 39.6715L20.6823 31.2319C21.0363 30.2155 21.2304 29.1192 21.2304 27.9886C21.2304 26.8466 21.0363 25.7616 20.6709 24.7338L35.7685 16.3056C37.5614 18.6468 40.3937 20.1657 43.5685 20.1657C48.9817 20.1657 53.4013 15.7575 53.4013 10.3328C53.4013 4.90822 48.9931 0.5 43.5685 0.5C38.1439 0.5 33.7356 4.90822 33.7356 10.3328C33.7356 11.4749 33.9298 12.5712 34.2952 13.5876L19.2091 22.0158C17.4161 19.6632 14.5839 18.1557 11.409 18.1557C5.99581 18.1557 1.57617 22.564 1.57617 27.9886C1.57617 33.4132 5.99581 37.8214 11.4204 37.8214C14.5953 37.8214 17.4275 36.3025 19.2319 33.95L34.3295 42.3895C33.964 43.4174 33.7585 44.5251 33.7585 45.6671C33.7585 51.0804 38.1667 55.5 43.5913 55.5C49.016 55.5 53.4242 51.0918 53.4242 45.6671C53.4242 40.2425 49.0045 35.8343 43.5799 35.8343ZM43.5799 3.59489C47.3029 3.59489 50.3293 6.62126 50.3293 10.3443C50.3293 14.0673 47.3029 17.0936 43.5799 17.0936C39.8569 17.0936 36.8305 14.0673 36.8305 10.3443C36.8305 6.62126 39.8683 3.59489 43.5799 3.59489ZM11.4204 34.738C7.69743 34.738 4.67106 31.7116 4.67106 27.9886C4.67106 24.2656 7.69743 21.2392 11.4204 21.2392C15.1434 21.2392 18.1698 24.2656 18.1698 27.9886C18.1698 31.7116 15.132 34.738 11.4204 34.738ZM43.5799 52.4051C39.8569 52.4051 36.8305 49.3787 36.8305 45.6557C36.8305 41.9327 39.8569 38.9064 43.5799 38.9064C47.3029 38.9064 50.3293 41.9327 50.3293 45.6557C50.3293 49.3787 47.3029 52.4051 43.5799 52.4051Z" fill="black"/>
</g>
<defs>
<clipPath id="clip0">
<rect width="55" height="55" fill="white" transform="translate(0 0.5)"/>
</clipPath>
</defs>
</svg>
